<svg width="64" height="64" xmlns="http://www.w3.org/2000/svg">

 <g>
  <title>background</title>
  <rect fill="none" id="canvas_background" height="402" width="582" y="-1" x="-1"/>
 </g>
 <g>
  <title>Layer 1</title>
  <circle stroke="null" id="svg_2" fill="#000000" r="26.769268" cy="33.292298" cx="32.184614"/>
  <polygon stroke="null" id="svg_4" fill="#FFFFFF" points="43.836708068847656,25.303232192993164 44.3231086730957,20.51606559753418 32.10728454589844,20.51606559753418 19.676891326904297,20.51606559753418 20.27057456970215,25.303232192993164 32.10728454589844,25.303232192993164 32.77273178100586,25.303232192993164 32.10728454589844,25.57941436767578 20.70333480834961,30.307865142822266 21.08172607421875,34.98847198486328 32.10728454589844,35.02326583862305 38.01729965209961,35.0421142578125 37.63890838623047,41.28268051147461 32.10728454589844,42.83249282836914 32.10728454589844,42.82741928100586 32.062339782714844,42.8404655456543 26.72063446044922,41.49797058105469 26.396610260009766,37.624168395996094 26.378488540649414,37.624168395996094 21.42314910888672,37.624168395996094 21.406475067138672,37.624168395996094 22.054527282714844,45.10284423828125 32.10728454589844,48.062564849853516 32.10728454589844,48.056766510009766 32.126129150390625,48.062564849853516 42.125244140625,45.15648651123047 43.42279815673828,30.307865142822266 32.10728454589844,30.307865142822266 32.07973861694336,30.307865142822266 32.10728454589844,30.29553985595703 "/>
 </g>
</svg>